<?xml version="1.0" encoding="UTF-8"?>
<svg width="1464" height="1560.4" version="1.1" viewBox="0 0 1464 1560.4" xmlns="http://www.w3.org/2000/svg">
    <style type="text/css">.st0{fill-rule:evenodd;clip-rule:evenodd;fill:#5B2867;}
        .st1{fill-rule:evenodd;clip-rule:evenodd;fill:url(#SVGID_1_);}
        .st2{fill-rule:evenodd;clip-rule:evenodd;fill:#512555;}
        .st3{fill-rule:evenodd;clip-rule:evenodd;fill:#301E40;}
        .st4{fill-rule:evenodd;clip-rule:evenodd;fill:#AE569C;}
        .st5{fill-rule:evenodd;clip-rule:evenodd;fill:#CBA5C9;}
        .st6{fill-rule:evenodd;clip-rule:evenodd;fill:#97398F;}
        .st7{fill-rule:evenodd;clip-rule:evenodd;fill:#F08A03;}
        .st8{fill-rule:evenodd;clip-rule:evenodd;fill:#DF252A;}
        .st9{fill-rule:evenodd;clip-rule:evenodd;fill:#BC1B21;}
        .st10{fill-rule:evenodd;clip-rule:evenodd;fill:#FFFFFF;}
    </style>
    <g transform="translate(-268.01 -219.8)">
        <linearGradient id="SVGID_1_" x1="911.58" x2="911.58" y1="1595.1" y2="540.81"
                        gradientTransform="translate(675.23 255.77)" gradientUnits="userSpaceOnUse">
            <stop stop-color="#FF323F" offset="0"/>
            <stop stop-color="#FFA400" offset="1"/>
        </linearGradient>
        <path class="st2"
              d="m911.58 540.81c69.14 0 135.15 13.33 195.65 37.53 2.51 10.19 5.14 27.01 0.97 37.49 0.63 4.61 1.01 9.24 1.12 13.89 13.74-0.87 25.5 2.87 26.89 9.25l0.6 0.08c32.28 4.51 100.81 24.63 88.15 53.71-28.95-13.11-44.96-10.25-76.37-5.22-11.02 1.76-21.95 3.87-32.92 5.81 8.4 2.76 18.81 4.92 29.39 6.08 11.82-2 23.67-4.38 35.7-6.85-3.53 20.32-11.08 28.41-28.23 40.57-16.75 11.87-34.7 19.42-52.83 23.22 17.62 11.82 34.63 26 48.96 39.92 19.64 19.09 45.37 48.88 53.14 79.01 24.35-10.1 48-23.04 71.02-39.29 26.9-18.98 51.36-41.26 74.11-65.3 57.89 84.62 91.77 186.97 91.77 297.24 0 3.65-0.06 7.28-0.14 10.9-15.42 0.96-30.94 1.28-46.39 1.33 4.93 4.13 10.97 8.82 13.06 10.65 8.48 7.4 19.55 18.28 18.81 30.51-0.24 3.89-1.65 7.47-3.96 10.58-14.2 19.09-43.32 31.46-78.43 39.36-0.43 40.68-8.78 84.59-26.4 131.04-19.84 52.3-52.71 95.94-96.5 128.79-7.37 5.53-14.97 10.69-22.76 15.49 10.38 12.02 18.21 26.19 20.78 41.88 0.47 2.83 0.75 5.76 0.81 8.72-28.24 20.17-58.56 37.61-90.56 51.96-28.7-9.21-48.25-30.19-58.21-56.67-13.42 2.09-26.94 3.46-40.46 4.14-4.17 36.81-23.21 69.2-58.39 87.48-6.16 3.2-13.04 4.89-19.26 2.4l-2.38 7.26c-12.14 0.83-24.38 1.3-36.74 1.3-7.87 0-15.69-0.21-23.47-0.55l2.71-20.52c-2.59 1.04-5.36 1.57-8.24 1.44-8.71-0.39-15.58-6.41-20-13.5-5.27-8.48-7.59-19-7.98-28.88-0.83-21.24 6.56-41.82 17.88-59.79-36.9-13.46-71.61-32.58-101.74-57.28-46.26 10.12-95.04 13.6-138.71 12.9-37.51-0.61-77.08-4.29-115.44-11.94-82.21-92.96-132.13-215.16-132.13-349.02 0-21.83 1.35-43.34 3.93-64.48 7.84-3.01 16.11-4.75 24.55-4.9-15.84-39.43-11.65-78.44 18.55-112.14 33.39-37.26 69.45-42.56 109.23-22.67-6.89-38.89 1.56-78.64 34.37-104.16 25.63-19.93 63.52-26.81 92.55-10.1 8.07 4.65 14.78 10.81 19.99 18.16 5.73-29.15 21.81-54.66 50.01-69.17 27.63-14.22 64.09-14.75 89.33 4.96 11.66 9.1 19.36 21.48 22.8 35.83 13.18 55.11 32.25 107.62 57.32 157.36 18.66-4.38 37.47-7.54 56.05-9.53 17.78-46.77 12.16-100.1-17.36-140.29-30.29-2.25-58-13.96-75-40.32-22.12-34.3-18.39-81.23-4.25-117.79 6.45-16.7 15.87-33.37 27.93-47.59 5.67-0.16 11.38-0.29 17.12-0.29z"/>
        <path class="st3"
              d="m1498.8 815.88c18.24-3.29 52.11-6.72 59.65 13.47 6.26 16.73-11.81 34.1-23.72 42.95-16.67 12.39-37.36 21.46-58.05 27.75 2.71 0.85 5.42 1.73 8.11 2.67 11.03 3.86 29.93 11.08 31.9 24.39 1.9 12.82-12.24 21.54-21.88 26.46-9.29 4.74-19.44 8.49-29.32 11.79-13.96 4.66-28.24 8.6-42.52 12.21 4.25 4.23 12.01 10.47 14.24 12.4 8.01 6.93 19.78 17.48 18.59 29.16-1.44 14.15-19.68 19.32-31.14 21.8-11.96 2.58-24.59 3.84-36.78 4.7-16.95 1.2-34.04 1.58-51.05 1.63 4.93 4.14 10.97 8.83 13.06 10.65 8.48 7.41 19.55 18.28 18.81 30.52-0.24 3.88-1.65 7.46-3.96 10.58-44.53 59.89-235.88 53.63-298.35 51.07l-4.88-0.21-1.77-4.56c-34.15-88.17-68.39-176.2-105.78-263.07l-4.66-10.84 11.78 0.43c93.9 3.4 178.8-13.97 256.39-68.72 58.63-41.37 105.7-98.43 148.71-155.23l2.24-2.95 3.7-0.01c25.09-0.05 47.67 4.96 71.86 10.76 22.95 5.51 44.54 10.39 68.33 10.35l4.48-0.01 2.11 3.94c18.49 34.52 21.83 70.39 5.49 106.31-5.32 11.68-12.19 22.24-19.92 32.44-1.01 1.38-3.36 4.23-5.67 7.17z"/>
        <path class="st4"
              d="m960.88 879.29c209.12 7.56 308.56-91.19 411.33-226.91 51.79-0.1 88.42 21.21 140.2 21.11 55.11 102.87-61.32 159.49-15.78 150.4 93.29-18.62 62.88 51.43-43.43 74.57-19.7 4.29 158.92 24.17-34.87 72.59-36.78 9.19 137.67 68.99-86.89 68.75-33.61-0.04 44.65 31.51 27.38 54.75-18.98 25.53-84 56.62-292.06 48.06-33.51-86.51-67.02-173.02-105.88-263.32z"/>
        <path class="st3"
              d="m1327.9 708.25c14.93-17.73 29.59-36.42 44.32-55.87 43.38-0.08 76.12 14.85 116.05 19.65l35.33 28.93c23.68 85.36-68.27 131.18-26.96 122.94 93.29-18.62 62.88 51.43-43.43 74.57-19.7 4.29 158.92 24.17-34.87 72.59-36.5 9.12 134.97 68.08-81.94 68.73-2.94-20.55-54.62-19.68-43.6-26.65 54.14-34.28 71.84-65.98 71.95-90.24 0.1-24.56-117.26 15.64-72.76-2.72 40.25-16.61 74.48-61.83 63.8-92.19-12.53-35.58-68.22 31.84-51.32 2.94 8.98-15.36 41.64-65.77 42.19-83.56 0.56-18.45-9.07-28.8-18.76-39.12z"/>
        <path class="st5"
              d="m1337.8 696.28c11.53-14.11 22.94-28.77 34.4-43.9 51.79-0.1 88.42 21.21 140.2 21.11 55.11 102.87-61.32 159.49-15.78 150.4 93.29-18.62 62.88 51.43-43.43 74.57-19.7 4.29 158.92 24.17-34.87 72.59-34.07 8.51 113.04 60.43-43.53 67.86 10.5-20.81 7.68-48.43-12.22-65.9 34.57-30.23 55.61-90.46 7.13-89.58 46.04-49.14 11.75-111.24-19.67-91.16 18.14-34.76 25.46-92.86-12.23-95.99zm8.1 368.01 0.38 0.33-0.84-0.17z"/>
        <path class="st3"
              d="m1331.8 714.91c118.44-34.24 283.75-257.83 256.47-356.31-111.5 31.41-286.29 301.53-256.47 356.31z"/>
        <path class="st3"
              d="m1457.9 660.54c47.61-65.78 95.22-131.55 142.83-197.32l5.15-7.12 6.19 6.24c39.02 39.36 78.04 78.72 117.06 118.08l2.82 2.84-0.81 3.92c-14.12 68.21-45.52 131.56-112.24 160.5l-3.19 1.39-3.11-1.55c-50.67-25.31-101.33-50.62-151.99-75.93l-7.87-3.93z"/>
        <path class="st5"
              d="m1464 664.91c50.67 25.31 101.33 50.62 152 75.93 56.85-24.66 91.84-77.64 107.9-155.17-39.02-39.36-78.04-78.72-117.06-118.08-47.61 65.78-95.22 131.55-142.84 197.32z"/>
        <path class="st3"
              d="m1457.9 660.54c47.61-65.78 95.22-131.55 142.83-197.32l5.15-7.12 60.95 61.48-1.67 4.47c-27.71 74.33-70 135.41-137.78 178.83l-3.57 2.29-71.08-35.51z"/>
        <path class="st6"
              d="m1464 664.91 59.42 29.69c68.41-43.83 108.7-105.1 134.81-175.16l-51.4-51.85c-47.6 65.78-95.21 131.55-142.83 197.32z"/>
        <path class="st3"
              d="m1349.2 701.67c41.21-27.66 79.38-62.22 112.66-98.97 53.22-58.78 116.87-150.86 124.26-231.99l1.12-12.39 10.4 6.82c5.04 3.31 9.51 7.36 13.25 12.09 22.88 28.9 13.77 74.74 2.69 106.5-16.04 45.95-45.21 91.49-77.01 128.11-44 50.68-112.55 105.52-183.42 103.48l-23.29-0.67z"/>
        <path class="st5"
              d="m1353.4 707.86c153.49 4.43 329.3-278.02 240.19-336.48-9.94 109.33-124.04 258.54-240.19 336.48z"/>
        <path class="st3"
              d="m1512.8 616.86-0.08-0.34-0.12-0.69-0.05-0.34c-0.22-1.48-0.32-2.99-0.29-4.49 0.29-12.53 10.01-28.77 17.4-38.67 7.41-9.92 20.77-24.45 33.59-26.47 0.28-0.04 0.56-0.08 0.83-0.12l0.28-0.25 2.98 0.07c12.03 0.28 33.43 13.82 43.16 21.1 9.83 7.36 23.38 19.35 26.65 31.69l0.09 0.27 0.2 0.86 0.03 0.22c2.45 12.99-11.22 32.14-18.85 41.78-6.27 7.92-21.71 25.7-31.56 28.15l-1.11 0.24-0.6 0.11c-12.99 2.05-32.93-11.49-42.84-19.09-9.13-7.01-27.12-22.46-29.71-34.03zm67.07 21.17c4.42-4.08 11.29-12.75 14.02-16.19 2.47-3.13 9.6-12.15 12.02-16.86-2.8-4.07-11.54-11-14.32-13.08-4.17-3.13-17.79-12.49-23.95-14.47-3.8 2.47-10.61 10.99-12.71 13.8-2.58 3.45-9.47 13.62-10.84 19.02 3.49 4.46 14.17 12.91 17.67 15.59 3.14 2.43 12.88 9.69 18.11 12.19z"/>
        <path class="st7"
              d="m1585 662.44 0.1-0.03 0.14-0.03c5.41-1.36 17.56-12.97 27.51-25.54 10.28-12.99 19.01-28 17.34-35.93l-0.02-0.12-0.03-0.14-0.06-0.16c-2.2-8.79-12.35-19.15-23.97-27.85-14.2-10.63-31.59-19.45-38.87-19.62l-0.03 0.02c-0.91-0.02-1.82 0.04-2.73 0.19-8.54 1.35-19.86 11.63-28.77 23.56-8.7 11.65-15.71 25.49-15.92 34.37-0.03 1.07 0.05 2.18 0.23 3.31l0.03 0.23 0.04 0.23 0.05 0.21c1.48 6.99 13.68 19.61 26.98 29.81 13.5 10.35 29.07 18.91 37.13 17.64l0.19-0.03 0.24-0.04zm14.72-35.97c-7.87 9.93-15.95 18.76-18.33 19.73-3.41 0.22-13.91-6.54-24.2-14.43-10.49-8.04-19.84-16.63-20.83-19.91v-0.04l0.01-0.27c0.12-5.41 5.66-15.54 12.56-24.78 6.59-8.83 13.83-16.28 17.9-17.09 4.4 0.16 17.46 7.44 29.22 16.25 8.9 6.66 16.48 13.77 17.79 18.43h-0.01l0.03 0.14c0.27 2.6-6.51 12.33-14.14 21.97z"/>
        <path class="st3"
              d="m844.21 1151.1-15.99 22.26c2.99 0.42 5.98 0.83 8.97 1.24l12.7 1.72-7.77 10.2c-5.38 7.07-10.58 17.46-14.91 25.34-4.75 8.63-10.21 19.43-16.12 27.2l-1.38 1.82-2.16 0.73c-26.34 8.92-53.32 16.3-80.64 21.85 30.24 4.46 61.11 4.56 90.81-3.31l11.94-3.16-2.76 12.04-17.79 77.79-0.77 3.35-3.05 1.59c-66.2 34.67-154.68 45.45-228.56 44.25-63.77-1.03-133.45-10.94-193.11-34.13-44.47-17.28-95.92-47.39-111.23-95.76-6.87-21.72-5.28-44 2.09-65.37 8.12-23.51 21.26-43.87 43.01-54.88-4.22-4.7-8.33-9.49-12.34-14.37-28.19-34.33-40.87-78.93-18.47-119.77 14.03-25.58 41.45-45.55 70.94-46.06-15.84-39.43-11.65-78.43 18.55-112.14 33.39-37.26 69.45-42.56 109.23-22.67-6.89-38.89 1.56-78.64 34.37-104.16 25.63-19.93 63.52-26.81 92.55-10.1 8.07 4.65 14.77 10.81 19.98 18.16 5.73-29.15 21.81-54.66 50.01-69.17 27.63-14.22 64.09-14.74 89.33 4.96 11.66 9.1 19.36 21.48 22.8 35.83 21.88 91.43 59.91 175.69 114.75 252.04 40.45 56.31 86.99 103.9 138.58 149.86l9.57 8.52-12.13 4.11c-8.42 2.85-18.54 8.57-26.53 12.68-8.76 4.51-19.32 10.41-28.56 13.55l-2.16 0.74-2.2-0.6c-17.13-4.67-34.08-10.01-50.79-16.02-4.46 3.02-8.86 6.16-13.26 9.27-8.04 5.69-17.67 13.01-26.39 17.41l-2.04 1.02-2.26-0.28c-15.66-1.97-31.3-4.5-46.81-7.58z"/>
        <path class="st6"
              d="m801.84 1345.1c-177.83 93.12-580.54 32.54-520.29-141.95 10.59-30.67 27.28-47.46 48.67-54.52-6.55-6.94-12.98-14.23-19.29-21.9-68.01-82.82 1.25-163.49 58.71-152.63-20.05-40.03-19.56-80.29 12.1-115.62 37.01-41.31 74.73-38.36 114.73-12.75-0.64-2.47-1.28-4.93-1.88-7.44-29.26-122.14 109.81-159.23 138.38-86.69 1.45 3.68 2.92 7.31 4.41 10.92-1.87-114.01 132.28-127.73 149.82-54.42 50.56 211.32 173.44 332.53 255.63 405.74-12.12 4.11-42.97 22.12-55.09 26.23-17.54-4.79-35.57-10.47-53.76-17.13-13.38 8.83-32.92 23.74-42 28.32-16.57-2.1-33.66-4.88-51.02-8.46l-25.97 36.16c7.29 1.08 14.36 2.08 21.2 3-7.76 10.18-23.28 42.36-31.03 52.54-36.28 12.28-76.56 22.51-118.8 28.21 45.73 11.77 91 15.82 133.27 4.62-5.93 25.91-11.86 51.84-17.79 77.77z"/>
        <path class="st3"
              d="m532.39 1386.3c-151.83-12.55-287.63-76.62-250.84-183.15 10.59-30.67 27.28-47.46 48.67-54.52-6.55-6.94-12.98-14.23-19.29-21.9-68.01-82.82 1.25-163.49 58.71-152.63-20.05-40.03-19.56-80.29 12.1-115.62 37.01-41.31 74.73-38.36 114.73-12.75-0.64-2.47-1.28-4.93-1.88-7.44-29.26-122.14 109.81-159.23 138.38-86.69 1.45 3.68 2.92 7.31 4.41 10.92-1.87-114.01 132.28-127.73 149.82-54.42 5.3 22.16 11.41 43.32 18.17 63.55-69.05-45.44-115.13 59.47-127.7 126.78-5.45 29.19-47.26-70.67-93.05-80.63-28.43-6.18-35 47.64-28.05 141.18 2.38 32.01-73.67-62-91.7 1.53-14.14 49.82 27.77 169.97 2.19 145.89-94.58-89.05-139.6-20.18-14.48 93.45 43.41 39.43-88.19 4.22-58.13 60.26 22.75 42.38 65.09 98.98 137.94 126.19z"/>
        <path class="st5"
              d="m455.14 1375.1c-116.74-24.99-203.95-83.97-173.59-171.9 10.59-30.67 27.28-47.46 48.67-54.52-6.55-6.94-12.98-14.23-19.29-21.9-68.01-82.82 1.25-163.49 58.71-152.63-20.05-40.03-19.56-80.29 12.1-115.62 37.01-41.31 74.73-38.36 114.73-12.75-0.64-2.47-1.28-4.93-1.88-7.44-29.26-122.14 109.81-159.23 138.38-86.69 1.45 3.68 2.92 7.31 4.41 10.92-1.87-114.01 132.28-127.73 149.82-54.42 2.65 11.07 5.51 21.88 8.54 32.47-50.11-41.89-117.4-45.79-135.38 92.37-3.3 25.35-52.11-128.39-107.9-64.22-45.14 51.91-32.57 98.93-12.25 147.63 17.64 42.29-110.44-119.46-128.36 17.67-8.11 62.1 17.65 98.46 32.73 126.27 13.09 24.13-146.89-125.16-109.16 26.23 18.39 73.79 96.27 101.06 66.03 98.78-67.42-5.08-65.94 59.76-49.93 88.2 21.88 38.82 54.33 71.55 103.62 101.55z"/>
        <path class="st3"
              d="m1138.8 1599.5c-27.01 14.09-60.31 10.85-88.15 24.96-20.25 10.27 6.79 48.53 26.39 46.81 7.54-0.66 14.59-2.69 21.42-5.9 10.85-5.11 20.35-12.77 30-19.79 10.34-7.52 20.44-13.91 32.41-18.4 14.34 2.57 25.84 7.99 37.36 17.04 9.71 7.64 18.33 17 28.87 23.49 6.71 4.13 13.73 6.77 21.56 7.79 11.45 1.5 25.82 0.63 31.92-10.92 4.62-8.74 2.23-19.73-2.36-28.88 12.19-1.68 24.89-5.16 34.71-11.79 8.2-5.53 15.76-14.72 13.28-25.28-2.85-12.14-16.39-16.47-27.38-17.02-7.03-0.36-14.08-0.2-21.1 0.3-20.67 1.48-40.68 5.99-61.1 9.06-14.07 2.12-31.18 4.06-45.21-0.29-12.59-36.41-25.18-72.81-37.77-109.22l-0.43-1.25-0.9-0.97c-8.89-9.57-24.28-24.2-38.76-18.71-9.97 3.78-14.78 15.44-17.55 24.9l-0.75 2.56 1.32 2.32c20.74 36.42 41.48 72.8 62.22 109.19z"/>
        <path class="st7"
              d="m1127.7 1483.6 14.4 41.65c-7.95 4.26-16.33 7.88-25.02 11-1.97 0.71-3.96 1.39-5.96 2.05l-29.09-51.03c6.83-23.33 19.16-32.2 45.67-3.67zm16.48 47.66c-7.97 4.21-16.33 7.8-24.99 10.91-1.62 0.58-3.26 1.15-4.91 1.7l13.42 23.54c2.84-0.4 5.65-0.86 8.41-1.39 6.37-1.21 12.54-2.76 18.48-4.66zm12.45 36.02 9.83 28.42c33.78 12.91 83.49-10.2 132.04-7.74 35.67 1.8 29.29 38.66-30.93 42.56 12.41 16.27 17.17 43.43-18.11 38.81-33.56-4.4-40.78-40.73-89.19-48.58-37.3 13.29-52.32 41.54-83.8 44.31-13.88 1.22-35.43-28.63-22.99-34.93 29.43-14.92 64.46-9.67 93.88-28.25l-16.32-28.63c2.1-0.33 4.19-0.68 6.26-1.08 6.65-1.27 13.11-2.89 19.33-4.89z"/>
        <path class="st3"
              d="m1098.8 1502c5.7 2.56 12.1 5.14 17.87 6.27 5.01 0.98 10.78 0.83 13.87-3.96 2.32-3.6 1.69-7.78 0.55-11.64 0.85 0.41 1.58 0.79 2.04 1.02 3.85 1.97 8.16 2.71 12.39 1.64 7.12-1.79 11.79-7.92 14.23-14.53 2.92-7.89 3.06-16.97 1.72-25.19-3.82-23.31-19.25-43.27-37.41-57.81-8.26-6.61-18.53-12.86-31.33-0.2-36.26-13.79-54.08-10.58-62.78 19.45-21.72-9.58-24.24 7.86-22.66 18.38 5.81 38.6 28.66 70.72 67.54 81.8 7.01 2 14.55 1.87 19.54-4.2 1.67-2.04 2.75-4.41 3.51-6.92 0.31-1.02 0.6-2.6 0.92-4.11z"/>
        <path class="st4"
              d="m1115.5 1399.1c58.63 42.85 42.47 100.19 20.5 88.91-35.93-18.44 19.58 33.38-38.38 6.46-8.44-3.92 0.54 22.8-21.08 16.64-34.06-9.7-59.5-38.74-63.84-83.07 3.47-50.64 51.99-62.22 102.8-28.94z"/>
        <path class="st3"
              d="m1272.9 1635.6c-19.83-15.62-43.12-22.75-69.99-21.08 28.09-7.25 53.52-3.02 75.19 17.47-1.73 1.2-3.47 2.41-5.2 3.61z"/>
        <path class="st3"
              d="m859.9 1662.1c34.74 9.96 72.67-1.72 108.4 8.07 25.99 7.12 3.65 58.02-19.55 60.68-8.92 1.02-17.6 0.34-26.3-1.77-13.83-3.35-26.69-10.01-39.57-15.87-13.81-6.29-27.07-11.32-42.05-13.69-16.05 6.39-28.14 15.43-39.38 28.7-9.48 11.18-17.27 24.12-27.98 34.17-6.81 6.4-14.35 11.13-23.2 14.18-12.95 4.47-29.86 6.87-39.71-5.1-7.45-9.05-7.28-22.41-4.13-34.12-14.56 0.95-30.16-0.09-43.14-5.46-10.84-4.49-21.82-13.36-21.44-26.23 0.43-14.78 15.14-23.03 27.78-26.29 8.09-2.08 16.32-3.57 24.6-4.66 24.38-3.19 48.71-2.71 73.18-3.99 16.86-0.88 37.21-2.69 52.49-11.08 5.98-45.31 11.96-90.62 17.95-135.93l0.21-1.56 0.82-1.35c8.06-13.23 22.47-33.89 40.61-30.95 12.48 2.03 20.84 14.43 26.32 24.76l1.49 2.8-0.99 3.01c-15.48 47.23-30.95 94.46-46.41 141.68z"/>
        <path class="st7"
              d="m845.23 1524.6-6.84 51.84c10.26 3.06 20.85 5.28 31.7 6.84 2.46 0.35 4.94 0.67 7.42 0.97l21.69-66.23c-13.5-25.5-29.94-32.88-53.97 6.58zm-7.84 59.32c10.27 3 20.83 5.19 31.64 6.74 2.03 0.29 4.07 0.56 6.11 0.81l-10.01 30.56c-3.4 0.21-6.77 0.33-10.1 0.38-7.69 0.11-15.23-0.22-22.59-1.03zm-5.91 44.83-4.67 35.38c-36.2 23.03-99.48 7.98-155.32 22.38-41.04 10.58-24.86 51.9 46.07 42.12-10.56 21.86-9.64 54.56 30.27 40.8 37.98-13.08 37.73-57.04 92.14-77.66 46.51 6.58 70.69 35.86 107.93 31.59 16.43-1.88 34.38-41.7 18.43-46.07-37.75-10.34-77.22 4.07-115.83-10.53l12.16-37.16c-2.52 0.12-5.03 0.2-7.53 0.24-8.05 0.11-15.94-0.23-23.65-1.09z"/>
        <path class="st3"
              d="m1260 1269.4c-19.84 52.29-52.7 95.94-96.49 128.79-68.36 51.28-156.08 71-239.29 64.97-132.24-9.59-264.76-85.45-304.19-224.29-24.92-87.74-21.08-178.41 33.39-253.33 62.23-85.6 171.68-125.85 271.44-132.86 250.3-17.61 431.92 161.55 335.14 416.72z"/>
        <path class="st4"
              d="m1270.5 1200.1c-27.5 179.19-177.96 260.57-327.83 256.55-138.4-3.71-276.34-80.2-315.84-219.85-57.82-204.44 65.04-326.13 218.6-365.2 232.87-59.26 467.47 52.17 425.07 328.5z"/>
        <path class="st3"
              d="m957.02 655.24c-2.04 6.04-3.01 12.75 0.42 18.49 5.23 8.73 21.18 15.08 30.1 19.5 7.39 3.67 14.84 7.79 20.9 13.47 50.31 47.62 167.99 273.55 112.33 329.21-2.66 2.65-5.91 4.34-9.69 4.65-5.64 0.47-10.87-2.24-15.53-5.1-1.49-0.91-7.32-4.82-9.36-5.21-0.03 0.04-0.05 0.07-0.06 0.09-6.73 10.38-18.71 26.4-33.22 21.83-10.37-3.27-13.25-12.09-20.2-18.46-15.9 18.93-32.63 22.74-53.7 0.92-12.27 14.56-51.7 2.86-51.84-21.02-66.17 4.81-17.91-59.87-45.91-55.15-32.05 5.4-43.61-22.73-33.02-29.81 75.23-50.36 89.96-149.75 42.21-214.75-30.29-2.25-58-13.96-74.99-40.32-22.12-34.3-18.39-81.23-4.26-117.79 13.02-33.71 38.09-67.29 72.69-80.79 34.26-13.37 70.19-11.18 102.07 7.32 48.78 28.3 78.61 90.08 64.66 145.62l-0.09 0.36c-0.05 0.12-0.09 0.23-0.14 0.35-6.07 15.46-36.5 18.32-50.63 19.9-6.09 0.69-38.2 3.22-42.74 6.69z"/>
        <path class="st8"
              d="m893.38 708.27c78.78 95.19 5.75 189-38.12 223.24-14.01 10.93 3.95 22.2 38.8 16.88 25.93-3.96-24.19 78.62 40.27 56.14-3.75 28.52 32.33 33.73 42.76 23.17 9.49-9.61 22.92 38.04 50.8 2.05 12.99-16.77 20.18 48.62 53.37-2.57 7.34-11.33 23.55 16.47 35.4 4.62 52.48-52.46-84.72-289.81-112.19-320.85-21.38-20.06-65.78-20.81-52.77-58.11 4.35-12.46 84.9-4.94 93.29-26.31 20.97-83.47-62.41-183.78-158.98-146.09-89.02 34.74-126.93 220.24 7.37 227.83z"/>
        <path class="st9"
              d="m1048.2 598.26c-0.41-31.42-13.61-62.79-35.03-86.37-2.52 0.76-4.84 2.03-6.84 3.9-6.22 5.82-7.31 15.16-6.11 24.68-6.49-10.36-15.47-19.43-26.87-23.79-5.81-2.22-11.89-3.08-18.08-2.53-9.38 0.83-18.33 4.28-23.59 12.5-10.9 17.03 0.61 43.26 10.33 58.26 8.96 13.83 26.53 33.68 44.38 34.24 5.73 0.18 11.3-1.29 15.86-4.84 10.87-8.45 12.57-24.23 10.45-39.07 6.4 10.8 15.93 22.2 27.18 24.31 2.54 0.48 5.12 0.25 7.48-0.85 0.28-0.13 0.57-0.28 0.84-0.44z"/>
        <path class="st9"
              d="m1004.5 710.95c-21.38-20.06-65.78-20.81-52.77-58.11 0.38-1.09 1.36-2.03 2.8-2.84l-99.15-12.54c1.9 12.88 12.33 22.82 36.18 19.24 27.5 52.64 65.24 77.96 101.97 82.94 25.8 37.98 49.98 115.59 55.08 167.48 4.65 47.39 52.71 54.6 71.25 34.71-18.64-66.75-69.31-178.87-115.36-230.88z"/>
        <path class="st3"
              d="m1118.6 900.62c-0.12 0.3-0.23 0.68-0.28 0.88-2.33 9.29-8.56 16.78-17.92 19.49-8.09 2.33-16.75 0.5-23.55-4.34-8.14-5.79-12.6-14.93-13.93-24.67-8.9-64.88-40.99-131.72-85.71-179.49l-11.74-12.54 16.95 2.82c12.31 2.05 24.63 4.11 36.94 6.16l0.91 0.15 0.82 0.42c25.56 13.28 51.71 33.85 72.31 53.87 25.1 24.4 60.13 66.26 54.94 103.97-1.45 10.53-4.48 27.47-15.58 32.31-3.32 1.45-6.6 1.58-10.14 1.26-0.76-0.04-2.98-0.34-4.02-0.29z"/>
        <path class="st9"
              d="m981.45 708.52c45.32 48.41 78.13 116.31 87.23 182.68 4.09 29.81 37.9 33.17 44 8.89 4-15.92 23.34 14.12 29.89-33.53 7.35-53.46-75.43-126.57-124.18-151.89-12.32-2.05-24.63-4.1-36.94-6.15z"/>
        <path class="st3"
              d="m1119 666.7c-27.22 3.44-68.56-5.5-75.94-15.91-38.82 3.76-77.14 14.2-166.77-32.84 48.89 77.89 168.48 85.68 242.71 48.75z"/>
        <path class="st3"
              d="m967.87 664.28c15.61 4.29 31.91 6.76 48.77 7.6 37.57 1.87 72.35-4.7 108.84-12.21-3.53 20.32-11.08 28.41-28.23 40.56-74.74 52.99-173.34 19.96-205.46-48.42-50.44 10.6-49.71-36.7-20.02-50.75 16.45-7.79 34.2 0.54 47.16 11.1 23.3 18.98 45.14 24.28 73.49 14.19 20.4-7.27 43.23-22.79 65.07-22.43 7.89 0.13 16.22 1.13 24.03 2.22 32.28 4.51 100.8 24.64 88.15 53.71-28.95-13.11-44.96-10.25-76.37-5.22-19.71 3.16-39.13 7.39-58.98 9.85-23.55 2.92-45.4 2.98-66.45-0.2z"/>
        <path class="st7"
              d="m855.23 636.42c5.21-30.89 29.57-44.55 60.02-19.75 61.79 50.33 101.82-7.6 142.15-6.94 24.21 0.4 114.26 14.22 109.73 43.96-71.76-32.48-155.04 48.78-277.01-24.46 79.59 69.03 180.97 47.56 228.16 37.85-5.22 30.06-132.95 113.72-224.04-17.57-25.15 0.62-40.79-2.53-39.01-13.09z"/>
        <path class="st3"
              d="m949.13 504.4c6.19-0.54 12.28 0.31 18.09 2.53 15.23 5.83 26.16 20.07 32.57 34.57 7.6 17.18 13.76 49.52-3.67 63.06-4.57 3.55-10.14 5.02-15.87 4.84-17.85-0.56-35.42-20.41-44.37-34.24-9.72-15.01-21.23-41.23-10.33-58.27 5.25-8.21 14.2-11.66 23.58-12.49z"/>
        <path class="st10" d="m949.65 510.2c49.1-4.33 71.48 94.66 30.79 93.39-32.26-1.02-83.41-88.75-30.79-93.39z"/>
        <path class="st3"
              d="m956.27 592.23c-13.53-12.05-25.85-31.65-29.64-48.7 1.58-4.11 4.24-7.29 7.89-8.97 7.88-3.64 18.08 0.79 25.64 10.16-3.7 2.2-6.19 6.23-6.19 10.84 0 6.96 5.65 12.6 12.6 12.6 1.16 0 2.27-0.16 3.33-0.45 1.26 10.69-2.08 19.98-9.35 23.33-1.36 0.64-2.8 1.02-4.28 1.19z"/>
        <path class="st3"
              d="m1016.5 503.36c18.84-1.07 29.82 22.84 34.25 37.77 3.47 11.68 9.69 43.07-4.94 49.88-2.36 1.1-4.94 1.33-7.48 0.85-14.56-2.73-26.25-21.03-31.98-33.44-6-13-13.98-38.69-1.56-50.31 3.23-3.04 7.32-4.5 11.71-4.75z"/>
        <path class="st10" d="m1016.8 509.17c28.49-1.61 43.66 80.92 22.58 76.97-24.55-4.61-52-75.3-22.58-76.97z"/>
        <path class="st3"
              d="m1022.7 575.86c-9.32-10.57-17.08-27.26-19.42-41.31 1.19-1.74 2.73-3.1 4.59-3.96 6.18-2.85 14.19 0.62 20.11 7.97-2.9 1.73-4.85 4.89-4.85 8.51 0 5.46 4.43 9.88 9.89 9.88 0.9 0 1.78-0.12 2.61-0.35 0.99 8.39-1.63 15.67-7.33 18.3-1.75 0.81-3.65 1.11-5.6 0.96z"/>
        <path class="st3"
              d="m907.83 507.89c4.84-25.27 23.31-44.92 46.19-52.34 5.82 2.74 8.04 19.84 8.21 29.76-16.25-4.49-33.77-0.17-54.4 22.58z"/>
        <path class="st3"
              d="m982.87 459.14c-1.56 3.17 0.66 15.05 3.21 18.22 10.13 1.53 24.68 0.26 31.04 5.9-3.45-12.73-20.7-24.08-34.25-24.12z"/>
        <path class="st3"
              d="m1007.4 634.88c5.41-46.52 77.12-44.27 73.54-26.25-35.71 6.15-37.27 12.38-46.04 36.09-6.56 17.74-33.35 8.24-27.5-9.84z"/>
        <path class="st9"
              d="m1011.2 636.68c-5.27 19.22 18.94 15.06 22.58 2.05 6.58-23.53 31.9-31.21 42.85-33.1-0.43-3.28-52.51-16.07-65.43 31.05z"/>
        <path class="st3" d="m883.82 625.66c-0.3-7.33 23.52 2.71 21.68 12.83-1.2 6.58-21.39-6.14-21.68-12.83z"/>
        <path class="st3"
              d="m867.01 704.18c16.68 3.4 33.35 5.17 50.03 1.03-7.55 8.42-19.22 10.23-33.61 7.7-5.47-2.91-10.94-5.82-16.42-8.73z"/>
        <path class="st3"
              d="m561.33 1168.4c-19.56-6.28-38.8-15.06-54.83-26.92-16.91-12.5-32.55-30.48-33.52-52.5-0.55-12.48 3.83-24.06 11.14-34.03 30.26-41.31 81.74-70.39 128.54-88.97 40.93-16.25 130.34-40.61 142.04-17.73 54.4 35.07 66.76 66.75 74.73 111.45 24.42 12.68 10.33 30.39 1.47 37.56 40.67 15.81 83.84 39.99 108.22 75.98 16.05 23.69 23.86 53.93 12.6 81.3-13.25 32.23-75.85 55.12-106.29 64.5-61.06 18.81-129.84 27.77-193.66 26.58-17.2-0.32-34.4-1.4-51.5-3.36-0.07-0.01-0.14-0.02-0.22-0.03-9.95-1.44-19.89-3.16-29.73-5.22-15.16-3.18-58.26-11.94-60.09-31.58-0.37-3.98 0.88-7.54 3.13-10.68-14.52 0.47-29.19-0.42-42.53-3.53-12.29-2.87-31.98-10.05-32.7-25.27-0.34-7.18 3.72-12.82 9.3-17.16-11.19-3.52-22.02-9.21-22.42-18.7-0.5-12.05 16.14-19.94 25.28-24.09 6.12-2.78 12.39-5.25 18.69-7.61-0.21-0.06-0.42-0.11-0.63-0.17l23.07-7.89c2.43-0.83 4.87-1.66 7.32-2.47 16.65-5.54 33.44-10.66 50.23-15.76 4.09-1.22 8.22-2.45 12.36-3.7z"/>
        <path class="st4"
              d="m771.79 939.75c-81.63 0.12-224.84 42.14-281.65 119.67-31.39 42.83 16.21 90.28 97.28 108.37-17.46 6.39-56.64 17.05-93.56 29.67l0.32 0.09c-6.9 2.3-13.55 4.59-19.76 6.85-7.37 2.76-14.45 5.59-21.02 8.46-27.36 12.52-33.29 24.13 15.77 33.38-52.51 17.62-12.87 51.48 75.03 38.17-68.02 25.84 10.75 43.83 56.94 50.5 151.88 17.42 323.95-35.15 343.69-83.15 16.01-38.92-4.39-108.36-129.88-152.38 15.61-9.33 27.08-21.72 34.53-35.5-27.44-64.64-38.53-95.28-77.69-124.13z"/>
        <path class="st3"
              d="m524.73 1144.5c17.07 9.79 38.37 17.86 62.68 23.29-13.6 4.98-40.39 12.54-69.02 21.62l24.63 24.63 394.89-28.48c-11.1-19.82-30.93-40.32-62.69-58.89 0.17 7.1-3.36 13.71-20.36 13.27-18.04-0.47-58.93-20.47-76.89-18.68-14.92 1.48 14.9 34.49-25.04 33.89-20.69-0.31-53.73-21.92-81.58-24.03-19.52-1.47 10.35 34.42-25.61 32.84-30.3-1.33-81.09-15.28-121.01-19.46z"/>
        <path class="st5"
              d="m574.13 1164.5c4.32 1.19 8.75 2.3 13.29 3.31-17.46 6.39-56.64 17.05-93.56 29.67l0.32 0.09c-6.9 2.3-13.55 4.59-19.76 6.85-7.37 2.76-14.45 5.59-21.02 8.46-27.36 12.52-33.29 24.13 15.77 33.38-52.51 17.62-12.87 51.48 75.03 38.17-68.02 25.84 10.75 43.83 56.94 50.5 151.88 17.42 323.95-35.15 343.69-83.15 11.54-28.07 4.14-72.03-47.99-110.88-5.88 21.31-40.22 19.72-93.74 2.71-0.03 32.61-31.99 41.99-109.25 18.43-5.94 13.34-55.32 10.67-119.72 2.46z"/>
        <path class="st3"
              d="m559.97 1160.4c85.45 24.05 184.94 37.25 238.9 26.32-1.28 15.98-150.42 17.7-231.99-17.77-2.08-3.62-4.82-4.93-6.91-8.55z"/>
        <path class="st3"
              d="m1215 1170.5c3.82 25.17-21.43 97.11-50.08 73.66-7.83-6.4-19.17-39.03-1.64-34.78-0.74 16.07 1.91 25.03 6.15 28.5 12.59 10.3 42.78-33.01 36.96-62.93-2.23-11.47 6.03-21.71 11.71-10.64 27.32 53.28 39.89-18.1-1.92-63.41 26.62-20.46 59.85 140.34-1.18 69.6z"/>
        <path class="st3"
              d="m981.71 1314.5c3.02 8.48 7.03 15.07 11.86 19.69 4.3 4.13 9.29 6.71 14.81 7.68 5.62 0.98 11.85 0.31 18.53-2.07 10.9-3.88 22.94-12.25 35.48-25.32 4.45-4.63 3.26-4.82 6.04 0.98 5.35 11.18 11.37 18.83 17 22.41 2.42 1.54 4.67 2.25 6.64 2.07 1.78-0.17 3.48-1.15 4.98-3 2.84-3.49 4.92-9.7 5.79-18.91 13.38 1.26 5.21 17.18-0.02 23.6-2.83 3.49-6.27 5.36-10.08 5.71-3.64 0.34-7.47-0.76-11.31-3.2-5.86-3.73-11.93-10.81-17.33-20.8-12.09 11.85-23.84 19.62-34.71 23.49-7.91 2.82-15.41 3.59-22.29 2.39-6.98-1.22-13.27-4.46-18.68-9.66-7.15-6.86-19.56-20.53-6.71-25.06z"/>
        <path class="st3"
              d="m883.18 1539.2c-6.02 4.32-12.84 8.85-19.29 11.53-5.59 2.33-12.33 3.52-17.06-1.31-3.56-3.63-3.8-8.64-3.4-13.4-0.89 0.68-1.65 1.29-2.13 1.68-4 3.2-8.84 5.08-14 4.85-8.71-0.39-15.59-6.41-20-13.5-5.28-8.48-7.6-19-7.98-28.88-1.1-28.01 12.09-54.87 29.75-76.09 8.03-9.65 18.48-19.35 36.37-7.68 38.88-24.65 60.36-25.15 77.6 7.7 22.97-16.29 30.05 3.37 30.71 15.98 2.42 46.25-16.51 89.02-59.08 111.14-7.67 3.98-16.47 5.63-23.71-0.24-2.43-1.96-4.25-4.47-5.73-7.2-0.61-1.15-1.33-2.91-2.05-4.58z"/>
        <path class="st4"
              d="m839.33 1423.6c-57.97 63.74-25.56 126.55-2.71 108.23 37.39-29.98-14.82 43.45 46.15-1.61 8.87-6.56 4.79 26.63 28.46 14.33 37.29-19.37 59.96-59.17 54.47-111.74-16.06-58.04-75.22-59.98-126.37-9.21z"/>
        <path class="st3"
              d="m712.61 1735.9c19.34-22.88 44.72-36.69 76.34-41.14-34.37-1.75-62.93 9.21-83.25 38.17 2.3 0.99 4.61 1.98 6.91 2.97z"/>
    </g>
</svg>
