<?xml version="1.0" encoding="UTF-8"?>
<svg enable-background="new 0 0 487.95 487.95" version="1.1" viewBox="0 0 487.95 487.95" xml:space="preserve"
     xmlns="http://www.w3.org/2000/svg">
	<path d="m481.8 453-140-140.1c27.6-33.1 44.2-75.4 44.2-121.6 0-105.4-86.5-191.1-192.9-191.1s-193.1 85.8-193.1 191.2 86.5 191.1 192.9 191.1c45.2 0 86.8-15.5 119.8-41.4l140.5 140.5c8.2 8.2 20.4 8.2 28.6 0s8.2-20.4 0-28.6zm-440.8-261.6c0-82.8 68.2-150.1 151.9-150.1s151.9 67.3 151.9 150.1-68.2 150.1-151.9 150.1-151.9-67.4-151.9-150.1z"/>
</svg>